<?xml version="1.0" encoding="UTF-8"?>
<svg xmlns="http://www.w3.org/2000/svg" xmlns:xlink="http://www.w3.org/1999/xlink" width="37.5pt" height="37.499999pt" viewBox="0 0 37.5 37.499999" version="1.2">
<defs>
<clipPath id="clip1">
  <path d="M 0.75 0.75 L 36.75 0.75 L 36.75 36.75 L 0.75 36.75 Z M 0.75 0.75 "/>
</clipPath>
</defs>
<g id="surface1">
<g clip-path="url(#clip1)" clip-rule="nonzero">
<path style=" stroke:none;fill-rule:nonzero;fill:rgb(0%,29.019165%,67.83905%);fill-opacity:1;" d="M 18.746094 2.027344 C 9.527344 2.027344 2.027344 9.527344 2.027344 18.746094 C 2.027344 27.964844 9.527344 35.464844 18.746094 35.464844 C 27.964844 35.464844 35.464844 27.964844 35.464844 18.746094 C 35.464844 9.527344 27.964844 2.027344 18.746094 2.027344 Z M 18.746094 36.746094 C 8.820312 36.746094 0.746094 28.671875 0.746094 18.746094 C 0.746094 8.820312 8.820312 0.746094 18.746094 0.746094 C 28.671875 0.746094 36.746094 8.820312 36.746094 18.746094 C 36.746094 28.671875 28.671875 36.746094 18.746094 36.746094 "/>
</g>
<path style=" stroke:none;fill-rule:nonzero;fill:rgb(0%,29.019165%,67.83905%);fill-opacity:1;" d="M 14.0625 20.4375 L 23.128906 20.4375 L 25.222656 15.316406 L 14.0625 15.316406 Z M 23.421875 21.3125 L 13.625 21.3125 C 13.382812 21.3125 13.1875 21.117188 13.1875 20.875 L 13.1875 14.878906 C 13.1875 14.636719 13.382812 14.441406 13.625 14.441406 L 25.871094 14.441406 C 26.019531 14.441406 26.15625 14.511719 26.234375 14.632812 C 26.316406 14.753906 26.332031 14.910156 26.277344 15.042969 L 23.828125 21.039062 C 23.761719 21.203125 23.601562 21.3125 23.421875 21.3125 "/>
<path style=" stroke:none;fill-rule:nonzero;fill:rgb(0%,29.019165%,67.83905%);fill-opacity:1;" d="M 22.363281 23.667969 L 13.625 23.667969 C 13.382812 23.667969 13.1875 23.472656 13.1875 23.230469 L 13.1875 13.71875 L 11.308594 11.839844 C 11.136719 11.667969 11.136719 11.390625 11.308594 11.222656 C 11.480469 11.050781 11.757812 11.050781 11.929688 11.222656 L 13.933594 13.226562 C 14.015625 13.308594 14.0625 13.417969 14.0625 13.535156 L 14.0625 22.792969 L 22.363281 22.792969 C 22.605469 22.792969 22.800781 22.988281 22.800781 23.230469 C 22.800781 23.472656 22.605469 23.667969 22.363281 23.667969 "/>
<path style=" stroke:none;fill-rule:nonzero;fill:rgb(0%,29.019165%,67.83905%);fill-opacity:1;" d="M 13.957031 23.667969 C 13.445312 23.667969 13.027344 24.085938 13.027344 24.597656 C 13.027344 25.109375 13.445312 25.523438 13.957031 25.523438 C 14.46875 25.523438 14.882812 25.109375 14.882812 24.597656 C 14.882812 24.085938 14.46875 23.667969 13.957031 23.667969 Z M 13.957031 26.398438 C 12.960938 26.398438 12.152344 25.589844 12.152344 24.597656 C 12.152344 23.601562 12.960938 22.792969 13.957031 22.792969 C 14.949219 22.792969 15.757812 23.601562 15.757812 24.597656 C 15.757812 25.589844 14.949219 26.398438 13.957031 26.398438 "/>
<path style=" stroke:none;fill-rule:nonzero;fill:rgb(0%,29.019165%,67.83905%);fill-opacity:1;" d="M 22.363281 23.667969 C 21.851562 23.667969 21.4375 24.085938 21.4375 24.597656 C 21.4375 25.109375 21.851562 25.523438 22.363281 25.523438 C 22.875 25.523438 23.292969 25.109375 23.292969 24.597656 C 23.292969 24.085938 22.875 23.667969 22.363281 23.667969 Z M 22.363281 26.398438 C 21.371094 26.398438 20.5625 25.589844 20.5625 24.597656 C 20.5625 23.601562 21.371094 22.792969 22.363281 22.792969 C 23.359375 22.792969 24.167969 23.601562 24.167969 24.597656 C 24.167969 25.589844 23.359375 26.398438 22.363281 26.398438 "/>
<path style=" stroke:none;fill-rule:nonzero;fill:rgb(0%,29.019165%,67.83905%);fill-opacity:1;" d="M 25.402344 16.5625 L 13.714844 16.5625 C 13.59375 16.5625 13.496094 16.464844 13.496094 16.34375 C 13.496094 16.222656 13.59375 16.125 13.714844 16.125 L 25.402344 16.125 C 25.523438 16.125 25.621094 16.222656 25.621094 16.34375 C 25.621094 16.464844 25.523438 16.5625 25.402344 16.5625 "/>
<path style=" stroke:none;fill-rule:nonzero;fill:rgb(0%,29.019165%,67.83905%);fill-opacity:1;" d="M 24.683594 17.929688 L 13.714844 17.929688 C 13.59375 17.929688 13.496094 17.832031 13.496094 17.710938 C 13.496094 17.589844 13.59375 17.492188 13.714844 17.492188 L 24.683594 17.492188 C 24.804688 17.492188 24.902344 17.589844 24.902344 17.710938 C 24.902344 17.832031 24.804688 17.929688 24.683594 17.929688 "/>
<path style=" stroke:none;fill-rule:nonzero;fill:rgb(0%,29.019165%,67.83905%);fill-opacity:1;" d="M 15.644531 20.753906 C 15.523438 20.753906 15.425781 20.65625 15.425781 20.535156 L 15.425781 15.042969 C 15.425781 14.921875 15.523438 14.824219 15.644531 14.824219 C 15.765625 14.824219 15.863281 14.921875 15.863281 15.042969 L 15.863281 20.535156 C 15.863281 20.65625 15.765625 20.753906 15.644531 20.753906 "/>
<path style=" stroke:none;fill-rule:nonzero;fill:rgb(0%,29.019165%,67.83905%);fill-opacity:1;" d="M 17.84375 20.753906 C 17.722656 20.753906 17.625 20.65625 17.625 20.535156 L 17.625 15.042969 C 17.625 14.921875 17.722656 14.824219 17.84375 14.824219 C 17.964844 14.824219 18.0625 14.921875 18.0625 15.042969 L 18.0625 20.535156 C 18.0625 20.65625 17.964844 20.753906 17.84375 20.753906 "/>
<path style=" stroke:none;fill-rule:nonzero;fill:rgb(0%,29.019165%,67.83905%);fill-opacity:1;" d="M 20.039062 20.753906 C 19.917969 20.753906 19.820312 20.65625 19.820312 20.535156 L 19.820312 15.042969 C 19.820312 14.921875 19.917969 14.824219 20.039062 14.824219 C 20.160156 14.824219 20.257812 14.921875 20.257812 15.042969 L 20.257812 20.535156 C 20.257812 20.65625 20.160156 20.753906 20.039062 20.753906 "/>
<path style=" stroke:none;fill-rule:nonzero;fill:rgb(0%,29.019165%,67.83905%);fill-opacity:1;" d="M 22.238281 20.753906 C 22.117188 20.753906 22.019531 20.65625 22.019531 20.535156 L 22.019531 15.042969 C 22.019531 14.921875 22.117188 14.824219 22.238281 14.824219 C 22.359375 14.824219 22.457031 14.921875 22.457031 15.042969 L 22.457031 20.535156 C 22.457031 20.65625 22.359375 20.753906 22.238281 20.753906 "/>
<path style=" stroke:none;fill-rule:nonzero;fill:rgb(0%,29.019165%,67.83905%);fill-opacity:1;" d="M 24.167969 19.410156 L 13.714844 19.410156 C 13.59375 19.410156 13.496094 19.3125 13.496094 19.191406 C 13.496094 19.070312 13.59375 18.972656 13.714844 18.972656 L 24.167969 18.972656 C 24.289062 18.972656 24.386719 19.070312 24.386719 19.191406 C 24.386719 19.3125 24.289062 19.410156 24.167969 19.410156 "/>
</g>
</svg>
