<?xml version="1.0" encoding="UTF-8"?>
<svg xmlns="http://www.w3.org/2000/svg" xmlns:xlink="http://www.w3.org/1999/xlink" width="37.5pt" height="37.499999pt" viewBox="0 0 37.5 37.499999" version="1.2">
<defs>
<clipPath id="clip1">
  <path d="M 1.613281 1.613281 L 36.113281 1.613281 L 36.113281 36.113281 L 1.613281 36.113281 Z M 1.613281 1.613281 "/>
</clipPath>
</defs>
<g id="surface1">
<g clip-path="url(#clip1)" clip-rule="nonzero">
<path style=" stroke:none;fill-rule:nonzero;fill:rgb(42.749023%,78.42865%,44.309998%);fill-opacity:1;" d="M 18.980469 36.347656 C 9.386719 36.347656 1.613281 28.574219 1.613281 18.980469 C 1.613281 9.386719 9.386719 1.613281 18.980469 1.613281 C 28.574219 1.613281 36.347656 9.386719 36.347656 18.980469 C 36.347656 28.574219 28.574219 36.347656 18.980469 36.347656 Z M 18.980469 36.347656 "/>
</g>
<path style=" stroke:none;fill-rule:nonzero;fill:rgb(100%,100%,100%);fill-opacity:1;" d="M 26.335938 11.183594 C 26.617188 10.898438 27.078125 10.898438 27.359375 11.183594 L 30.425781 14.25 C 30.710938 14.53125 30.710938 14.992188 30.425781 15.277344 L 17.125 28.582031 C 16.84375 28.863281 16.382812 28.863281 16.101562 28.582031 L 6.890625 19.367188 C 6.605469 19.085938 6.605469 18.625 6.890625 18.34375 L 9.960938 15.277344 C 10.242188 14.992188 10.699219 14.992188 10.984375 15.277344 L 16.613281 20.902344 Z M 26.335938 11.183594 "/>
</g>
</svg>
