<?xml version="1.0" encoding="UTF-8"?>
<svg xmlns="http://www.w3.org/2000/svg" xmlns:xlink="http://www.w3.org/1999/xlink" width="37.5pt" height="37.499999pt" viewBox="0 0 37.5 37.499999" version="1.2">
<defs>
<clipPath id="clip1">
  <path d="M 0 0.914062 L 37 0.914062 L 37 36.914062 L 0 36.914062 Z M 0 0.914062 "/>
</clipPath>
</defs>
<g id="surface1">
<g clip-path="url(#clip1)" clip-rule="nonzero">
<path style=" stroke:none;fill-rule:nonzero;fill:rgb(24.708557%,31.759644%,70.979309%);fill-opacity:1;" d="M 18.75 0.914062 C 18.167969 0.914062 17.585938 0.941406 17.007812 1 C 16.425781 1.058594 15.851562 1.144531 15.277344 1.261719 C 14.707031 1.378906 14.144531 1.523438 13.585938 1.695312 C 13.027344 1.867188 12.480469 2.066406 11.941406 2.292969 C 11.402344 2.519531 10.878906 2.773438 10.363281 3.054688 C 9.847656 3.332031 9.351562 3.636719 8.867188 3.96875 C 8.382812 4.296875 7.914062 4.652344 7.464844 5.027344 C 7.011719 5.402344 6.582031 5.800781 6.167969 6.222656 C 5.757812 6.640625 5.367188 7.082031 4.996094 7.539062 C 4.628906 7.996094 4.28125 8.472656 3.957031 8.96875 C 3.632812 9.460938 3.335938 9.96875 3.058594 10.492188 C 2.785156 11.015625 2.535156 11.550781 2.3125 12.101562 C 2.089844 12.648438 1.894531 13.207031 1.726562 13.773438 C 1.554688 14.34375 1.414062 14.917969 1.300781 15.5 C 1.1875 16.082031 1.101562 16.667969 1.042969 17.257812 C 0.988281 17.847656 0.957031 18.441406 0.957031 19.035156 C 0.957031 19.628906 0.988281 20.21875 1.042969 20.808594 C 1.101562 21.402344 1.1875 21.988281 1.300781 22.570312 C 1.414062 23.152344 1.554688 23.726562 1.726562 24.292969 C 1.894531 24.863281 2.089844 25.421875 2.3125 25.96875 C 2.535156 26.515625 2.785156 27.054688 3.058594 27.574219 C 3.335938 28.097656 3.632812 28.609375 3.957031 29.101562 C 4.28125 29.59375 4.628906 30.070312 4.996094 30.53125 C 5.367188 30.988281 5.757812 31.425781 6.167969 31.847656 C 6.582031 32.265625 7.011719 32.664062 7.464844 33.042969 C 7.914062 33.417969 8.382812 33.769531 8.867188 34.101562 C 9.351562 34.429688 9.847656 34.734375 10.363281 35.015625 C 10.878906 35.292969 11.402344 35.546875 11.941406 35.773438 C 12.480469 36.003906 13.027344 36.203125 13.585938 36.375 C 14.144531 36.546875 14.707031 36.691406 15.277344 36.804688 C 15.851562 36.921875 16.425781 37.007812 17.007812 37.066406 C 17.585938 37.125 18.167969 37.15625 18.75 37.15625 C 19.332031 37.15625 19.914062 37.125 20.492188 37.066406 C 21.074219 37.007812 21.648438 36.921875 22.222656 36.804688 C 22.792969 36.691406 23.355469 36.546875 23.914062 36.375 C 24.472656 36.203125 25.019531 36.003906 25.558594 35.773438 C 26.097656 35.546875 26.621094 35.292969 27.136719 35.015625 C 27.652344 34.734375 28.148438 34.429688 28.632812 34.101562 C 29.117188 33.769531 29.585938 33.417969 30.035156 33.042969 C 30.488281 32.664062 30.917969 32.265625 31.332031 31.847656 C 31.742188 31.425781 32.132812 30.988281 32.503906 30.53125 C 32.871094 30.070312 33.21875 29.59375 33.542969 29.101562 C 33.867188 28.609375 34.164062 28.097656 34.441406 27.574219 C 34.714844 27.054688 34.964844 26.515625 35.1875 25.96875 C 35.410156 25.421875 35.605469 24.863281 35.773438 24.292969 C 35.945312 23.726562 36.085938 23.152344 36.199219 22.570312 C 36.3125 21.988281 36.398438 21.402344 36.457031 20.808594 C 36.511719 20.21875 36.542969 19.628906 36.542969 19.035156 C 36.542969 18.441406 36.511719 17.847656 36.457031 17.257812 C 36.398438 16.667969 36.3125 16.082031 36.199219 15.5 C 36.085938 14.917969 35.945312 14.34375 35.773438 13.773438 C 35.605469 13.207031 35.410156 12.648438 35.1875 12.101562 C 34.964844 11.550781 34.714844 11.015625 34.441406 10.492188 C 34.164062 9.96875 33.867188 9.460938 33.542969 8.96875 C 33.21875 8.472656 32.871094 7.996094 32.503906 7.539062 C 32.132812 7.082031 31.742188 6.640625 31.332031 6.222656 C 30.917969 5.800781 30.488281 5.402344 30.035156 5.027344 C 29.585938 4.652344 29.117188 4.296875 28.632812 3.96875 C 28.148438 3.636719 27.652344 3.332031 27.136719 3.054688 C 26.621094 2.773438 26.097656 2.519531 25.558594 2.292969 C 25.019531 2.066406 24.472656 1.867188 23.914062 1.695312 C 23.355469 1.523438 22.792969 1.378906 22.222656 1.261719 C 21.648438 1.144531 21.074219 1.058594 20.492188 1 C 19.914062 0.941406 19.332031 0.914062 18.75 0.914062 Z M 18.75 0.914062 "/>
</g>
<path style=" stroke:none;fill-rule:nonzero;fill:rgb(100%,100%,100%);fill-opacity:1;" d="M 23.523438 19.035156 L 20.527344 19.035156 L 20.527344 29.90625 L 16.082031 29.90625 L 16.082031 19.035156 L 13.414062 19.035156 L 13.414062 15.410156 L 16.082031 15.410156 L 16.082031 13.226562 C 16.082031 10.046875 17.378906 8.164062 21.054688 8.164062 L 24.085938 8.164062 L 24.085938 11.785156 L 22.054688 11.785156 C 20.621094 11.785156 20.527344 12.328125 20.527344 13.347656 L 20.527344 15.410156 L 24.085938 15.410156 Z M 23.523438 19.035156 "/>
</g>
</svg>
