<?xml version="1.0" encoding="UTF-8"?>
<svg xmlns="http://www.w3.org/2000/svg" xmlns:xlink="http://www.w3.org/1999/xlink" width="600pt" height="599.999999pt" viewBox="0 0 600 599.999999" version="1.2">
<defs>
<clipPath id="clip1">
  <path d="M 14.238281 14.238281 L 585.738281 14.238281 L 585.738281 585.738281 L 14.238281 585.738281 Z M 14.238281 14.238281 "/>
</clipPath>
<clipPath id="clip2">
  <path d="M 14.238281 14.238281 L 300 14.238281 L 300 529 L 14.238281 529 Z M 14.238281 14.238281 "/>
</clipPath>
<clipPath id="clip3">
  <path d="M 14.238281 14.238281 L 300 14.238281 L 300 585.738281 L 14.238281 585.738281 Z M 14.238281 14.238281 "/>
</clipPath>
</defs>
<g id="surface1">
<g clip-path="url(#clip1)" clip-rule="nonzero">
<path style=" stroke:none;fill-rule:nonzero;fill:rgb(0%,29.019165%,67.83905%);fill-opacity:1;" d="M 299.988281 14.246094 C 457.796875 14.246094 585.730469 142.179688 585.730469 299.992188 C 585.730469 457.800781 457.796875 585.734375 299.988281 585.734375 C 142.175781 585.734375 14.242188 457.800781 14.242188 299.992188 C 14.242188 142.179688 142.175781 14.246094 299.988281 14.246094 "/>
</g>
<path style=" stroke:none;fill-rule:nonzero;fill:rgb(100%,100%,100%);fill-opacity:1;" d="M 220.804688 417.046875 C 220.804688 426.550781 213.101562 434.253906 203.597656 434.253906 L 165.726562 434.253906 C 156.21875 434.253906 148.503906 426.550781 148.503906 417.046875 L 148.503906 284.492188 C 148.503906 274.988281 156.21875 267.285156 165.726562 267.285156 L 203.597656 267.285156 C 213.101562 267.285156 220.804688 274.988281 220.804688 284.492188 L 220.804688 417.046875 "/>
<path style=" stroke:none;fill-rule:nonzero;fill:rgb(100%,100%,100%);fill-opacity:1;" d="M 438.558594 321.9375 C 438.558594 312.765625 433.707031 304.914062 426.8125 301.632812 C 433.890625 296.933594 438.558594 288.894531 438.558594 279.769531 C 438.558594 265.265625 426.800781 253.519531 412.304688 253.519531 L 331.828125 253.519531 C 331.828125 253.519531 357.652344 217.367188 354.210938 176.910156 C 350.769531 136.464844 325.8125 134.742188 323.234375 135.597656 C 323.234375 135.597656 305.148438 136.453125 304.296875 165.71875 C 303.429688 183.367188 292.238281 195.851562 292.238281 195.851562 L 262.117188 233.722656 C 233.714844 264.699219 235.4375 296.550781 235.4375 296.550781 L 235.4375 394.664062 C 235.4375 408.925781 247 420.488281 261.261719 420.488281 L 400.6875 420.488281 C 413.519531 420.488281 423.925781 410.082031 423.925781 397.25 C 423.925781 391.453125 421.789062 386.152344 418.277344 382.085938 C 426.59375 378.992188 432.527344 370.988281 432.527344 361.597656 C 432.527344 354.078125 428.738281 347.460938 422.976562 343.523438 C 431.835938 341.6875 438.558594 332.734375 438.558594 321.9375 "/>
<g clip-path="url(#clip2)" clip-rule="nonzero">
<path style=" stroke:none;fill-rule:nonzero;fill:rgb(96.078491%,96.078491%,96.078491%);fill-opacity:1;" d="M 128.164062 528.324219 C 58.972656 476.179688 14.242188 393.3125 14.242188 299.992188 C 14.242188 393.300781 58.972656 476.179688 128.164062 528.324219 M 14.242188 299.992188 C 14.242188 142.171875 142.175781 14.238281 299.988281 14.238281 L 299.988281 14.246094 C 142.175781 14.246094 14.242188 142.179688 14.242188 299.992188 "/>
</g>
<g clip-path="url(#clip3)" clip-rule="nonzero">
<path style=" stroke:none;fill-rule:nonzero;fill:rgb(0%,29.019165%,67.83905%);fill-opacity:1;" d="M 299.988281 585.738281 C 235.496094 585.738281 175.992188 564.371094 128.167969 528.324219 C 58.972656 476.179688 14.242188 393.300781 14.242188 299.992188 C 14.242188 142.183594 142.175781 14.25 299.988281 14.25 L 299.988281 183.261719 C 296.523438 191.082031 292.238281 195.851562 292.238281 195.851562 L 262.117188 233.722656 C 233.714844 264.699219 235.4375 296.550781 235.4375 296.550781 L 235.4375 394.664062 C 235.4375 408.925781 247 420.488281 261.261719 420.488281 L 299.988281 420.488281 L 299.988281 585.738281 M 165.726562 267.285156 C 156.21875 267.285156 148.503906 274.988281 148.503906 284.492188 L 148.503906 417.046875 C 148.503906 426.550781 156.21875 434.253906 165.726562 434.253906 L 203.597656 434.253906 C 213.101562 434.253906 220.804688 426.550781 220.804688 417.046875 L 220.804688 284.492188 C 220.804688 274.988281 213.101562 267.285156 203.597656 267.285156 L 165.726562 267.285156 "/>
</g>
<path style=" stroke:none;fill-rule:nonzero;fill:rgb(96.078491%,96.078491%,96.078491%);fill-opacity:1;" d="M 203.597656 434.253906 L 165.726562 434.253906 C 156.21875 434.253906 148.503906 426.550781 148.503906 417.046875 L 148.503906 284.492188 C 148.503906 274.988281 156.21875 267.285156 165.726562 267.285156 L 203.597656 267.285156 C 213.101562 267.285156 220.804688 274.988281 220.804688 284.492188 L 220.804688 417.046875 C 220.804688 426.550781 213.101562 434.253906 203.597656 434.253906 "/>
<path style=" stroke:none;fill-rule:nonzero;fill:rgb(96.078491%,96.078491%,96.078491%);fill-opacity:1;" d="M 299.988281 420.488281 L 261.261719 420.488281 C 247 420.488281 235.4375 408.925781 235.4375 394.664062 L 235.4375 296.550781 C 235.4375 296.550781 233.714844 264.699219 262.117188 233.722656 L 292.238281 195.851562 C 292.238281 195.851562 296.523438 191.082031 299.988281 183.261719 L 299.988281 420.488281 "/>
</g>
</svg>
