<?xml version="1.0" encoding="UTF-8"?>
<svg xmlns="http://www.w3.org/2000/svg" xmlns:xlink="http://www.w3.org/1999/xlink" width="37.5pt" height="37.499999pt" viewBox="0 0 37.5 37.499999" version="1.2">
<defs>
<clipPath id="clip1">
  <path d="M 0 0 L 37.007812 0 L 37.007812 37.007812 L 0 37.007812 Z M 0 0 "/>
</clipPath>
</defs>
<g id="surface1">
<g clip-path="url(#clip1)" clip-rule="nonzero">
<path style=" stroke:none;fill-rule:nonzero;fill:rgb(26.269531%,46.669006%,76.469421%);fill-opacity:1;" d="M 18.75 36.113281 C 9.160156 36.113281 1.386719 28.339844 1.386719 18.75 C 1.386719 9.160156 9.160156 1.386719 18.75 1.386719 C 28.339844 1.386719 36.113281 9.160156 36.113281 18.75 C 36.113281 28.339844 28.339844 36.113281 18.75 36.113281 Z M 18.75 0 C 8.394531 0 0 8.394531 0 18.75 C 0 29.105469 8.394531 37.5 18.75 37.5 C 29.105469 37.5 37.5 29.105469 37.5 18.75 C 37.5 8.394531 29.105469 0 18.75 0 "/>
</g>
<path style=" stroke:none;fill-rule:nonzero;fill:rgb(26.269531%,46.669006%,76.469421%);fill-opacity:1;" d="M 26.691406 30.582031 C 25.714844 30.582031 24.558594 30.445312 23.199219 30.101562 L 23.183594 30.097656 C 21.703125 29.644531 19.550781 29.410156 19.527344 29.410156 L 19.207031 29.375 L 19.207031 21.140625 L 19.238281 21.078125 C 19.34375 20.816406 19.621094 20.492188 20.007812 20.492188 C 20.121094 20.34375 20.292969 20.066406 20.4375 19.832031 C 20.820312 19.214844 21.292969 18.449219 21.808594 18.019531 C 21.996094 17.816406 22.191406 17.617188 22.398438 17.410156 C 23.207031 16.59375 24.121094 15.671875 24.738281 14.109375 C 24.992188 13.414062 24.929688 12.574219 24.929688 12.566406 L 24.921875 12.488281 L 24.949219 12.414062 C 25.042969 12.164062 25.347656 11.710938 25.886719 11.621094 C 26.566406 11.503906 27.335938 11.964844 28.234375 13.03125 L 28.289062 13.113281 C 28.742188 13.800781 28.925781 14.9375 26.90625 18.167969 C 26.8125 18.3125 26.773438 18.410156 26.757812 18.472656 L 31.359375 18.429688 L 31.378906 18.429688 C 31.976562 18.429688 32.976562 18.703125 33.105469 20.492188 L 33.105469 20.511719 C 33.117188 20.976562 32.886719 21.285156 32.722656 21.511719 C 32.511719 21.796875 32.480469 21.839844 32.703125 22.089844 C 33.238281 22.484375 33.351562 22.902344 33.351562 23.191406 C 33.355469 23.570312 33.152344 23.929688 32.804688 24.179688 C 32.695312 24.253906 32.449219 24.433594 32.78125 25.199219 C 33.140625 25.726562 32.886719 26.355469 32.671875 26.648438 C 32.621094 26.714844 32.242188 27.199219 31.871094 27.429688 C 31.835938 27.496094 31.835938 27.570312 31.828125 27.703125 C 31.824219 27.894531 31.816406 28.15625 31.652344 28.441406 C 31.554688 28.617188 30.398438 30.582031 26.691406 30.582031 "/>
<path style=" stroke:none;fill-rule:nonzero;fill:rgb(26.269531%,46.669006%,76.469421%);fill-opacity:1;" d="M 13.332031 29.375 L 18.554688 29.375 L 18.554688 21.140625 L 13.332031 21.140625 L 13.332031 29.375 "/>
<path style=" stroke:none;fill-rule:nonzero;fill:rgb(26.269531%,46.669006%,76.469421%);fill-opacity:1;" d="M 4.734375 11.019531 L 18.550781 11.019531 L 18.550781 20.496094 L 9.257812 20.496094 L 5.96875 24.4375 L 5.992188 20.496094 L 4.734375 20.496094 L 4.734375 11.019531 "/>
</g>
</svg>
