<?xml version="1.0" encoding="UTF-8"?>
<svg xmlns="http://www.w3.org/2000/svg" xmlns:xlink="http://www.w3.org/1999/xlink" width="37.5pt" height="37.499999pt" viewBox="0 0 37.5 37.499999" version="1.2">
<defs>
<clipPath id="clip1">
  <path d="M 0.703125 8 L 28 8 L 28 37.007812 L 0.703125 37.007812 Z M 0.703125 8 "/>
</clipPath>
<clipPath id="clip2">
  <path d="M 18 27 L 37.007812 27 L 37.007812 37.007812 L 18 37.007812 Z M 18 27 "/>
</clipPath>
<clipPath id="clip3">
  <path d="M 24 29 L 32 29 L 32 37.007812 L 24 37.007812 Z M 24 29 "/>
</clipPath>
</defs>
<g id="surface1">
<g clip-path="url(#clip1)" clip-rule="nonzero">
<path style=" stroke:none;fill-rule:nonzero;fill:rgb(100%,43.919373%,34.899902%);fill-opacity:1;" d="M 26.382812 37.5 L 1.566406 37.5 C 1.085938 37.5 0.71875 37.078125 0.78125 36.601562 L 4.445312 9.035156 C 4.457031 8.957031 4.523438 8.898438 4.605469 8.898438 L 23.347656 8.898438 C 23.425781 8.898438 23.492188 8.957031 23.503906 9.035156 L 27.167969 36.601562 C 27.230469 37.078125 26.863281 37.5 26.382812 37.5 "/>
</g>
<path style=" stroke:none;fill-rule:nonzero;fill:rgb(85.099792%,36.859131%,29.40979%);fill-opacity:1;" d="M 19.050781 12.777344 L 18.230469 4.96875 C 18.007812 2.863281 16.246094 1.269531 14.132812 1.269531 L 13.816406 1.269531 C 11.703125 1.269531 9.941406 2.863281 9.71875 4.96875 L 8.898438 12.777344 L 7.636719 12.644531 L 8.457031 4.835938 C 8.75 2.078125 11.050781 0 13.816406 0 L 14.132812 0 C 16.898438 0 19.203125 2.078125 19.492188 4.835938 L 20.3125 12.644531 L 19.050781 12.777344 "/>
<path style=" stroke:none;fill-rule:nonzero;fill:rgb(85.099792%,36.859131%,29.40979%);fill-opacity:1;" d="M 8.914062 20.339844 L 7.636719 20.339844 L 7.636719 14.617188 L 8.914062 14.617188 L 8.914062 20.339844 "/>
<path style=" stroke:none;fill-rule:nonzero;fill:rgb(100%,99.609375%,99.609375%);fill-opacity:1;" d="M 20.949219 13.347656 C 20.949219 14.050781 20.382812 14.617188 19.679688 14.617188 C 18.980469 14.617188 18.414062 14.050781 18.414062 13.347656 C 18.414062 12.644531 18.980469 12.078125 19.679688 12.078125 C 20.382812 12.078125 20.949219 12.644531 20.949219 13.347656 "/>
<path style=" stroke:none;fill-rule:nonzero;fill:rgb(98.81897%,78.42865%,44.309998%);fill-opacity:1;" d="M 10.171875 26.695312 C 10.078125 23.34375 9.265625 19.703125 8.277344 19.703125 C 7.289062 19.703125 6.480469 23.34375 6.386719 26.695312 L 10.171875 26.695312 "/>
<path style=" stroke:none;fill-rule:nonzero;fill:rgb(100%,99.609375%,99.609375%);fill-opacity:1;" d="M 9.546875 13.984375 C 9.546875 13.28125 8.976562 12.078125 8.277344 12.078125 C 7.578125 12.078125 7.011719 13.28125 7.011719 13.984375 C 7.011719 14.683594 7.578125 15.253906 8.277344 15.253906 C 8.976562 15.253906 9.546875 14.683594 9.546875 13.984375 "/>
<path style=" stroke:none;fill-rule:nonzero;fill:rgb(99.21875%,80.778503%,49.798584%);fill-opacity:1;" d="M 29.792969 13.347656 L 30.675781 14.96875 L 32.296875 15.855469 L 30.675781 16.746094 L 29.792969 18.367188 L 28.90625 16.746094 L 27.289062 15.855469 L 28.90625 14.96875 L 29.792969 13.347656 "/>
<path style=" stroke:none;fill-rule:nonzero;fill:rgb(98.81897%,87.838745%,69.018555%);fill-opacity:1;" d="M 34.894531 29.238281 C 34.894531 32.398438 31.773438 34.957031 27.921875 34.957031 C 24.070312 34.957031 20.949219 32.398438 20.949219 29.238281 C 20.949219 26.078125 24.070312 23.515625 27.921875 23.515625 C 31.773438 23.515625 34.894531 26.078125 34.894531 29.238281 "/>
<g clip-path="url(#clip2)" clip-rule="nonzero">
<path style=" stroke:none;fill-rule:nonzero;fill:rgb(98.81897%,78.42865%,44.309998%);fill-opacity:1;" d="M 32.421875 37.5 L 23.421875 37.5 C 21.96875 37.5 20.703125 36.507812 20.347656 35.09375 L 18.476562 27.59375 C 18.449219 27.472656 18.554688 27.367188 18.671875 27.398438 L 27.921875 29.871094 L 37.171875 27.398438 C 37.289062 27.367188 37.394531 27.472656 37.367188 27.59375 L 35.496094 35.09375 C 35.144531 36.507812 33.875 37.5 32.421875 37.5 "/>
</g>
<path style=" stroke:none;fill-rule:nonzero;fill:rgb(99.21875%,80.778503%,49.798584%);fill-opacity:1;" d="M 31.726562 27.332031 L 30.457031 27.332031 L 30.457031 26.058594 L 31.726562 26.058594 L 31.726562 27.332031 "/>
<g clip-path="url(#clip3)" clip-rule="nonzero">
<path style=" stroke:none;fill-rule:nonzero;fill:rgb(100%,43.919373%,34.899902%);fill-opacity:1;" d="M 31.726562 33.6875 C 31.726562 35.792969 30.023438 37.5 27.921875 37.5 C 25.820312 37.5 24.117188 35.792969 24.117188 33.6875 C 24.117188 31.582031 25.820312 29.871094 27.921875 29.871094 C 30.023438 29.871094 31.726562 31.582031 31.726562 33.6875 "/>
</g>
<path style=" stroke:none;fill-rule:nonzero;fill:rgb(100%,99.609375%,99.609375%);fill-opacity:1;" d="M 29.605469 33.796875 L 28.035156 35.371094 C 27.972656 35.433594 27.871094 35.433594 27.808594 35.371094 L 26.242188 33.796875 C 26.179688 33.738281 26.179688 33.636719 26.242188 33.574219 L 27.808594 32 C 27.871094 31.9375 27.972656 31.9375 28.035156 32 L 29.605469 33.574219 C 29.664062 33.636719 29.664062 33.738281 29.605469 33.796875 "/>
</g>
</svg>
