<?xml version="1.0" encoding="UTF-8"?>
<svg xmlns="http://www.w3.org/2000/svg" xmlns:xlink="http://www.w3.org/1999/xlink" width="75pt" height="74.999997pt" viewBox="0 0 75 74.999997" version="1.2">
<g id="surface1">
<path style=" stroke:none;fill-rule:nonzero;fill:rgb(31.759644%,74.119568%,13.729858%);fill-opacity:1;" d="M 35.527344 42.527344 C 35.304688 42.765625 35.078125 43.007812 34.871094 43.261719 C 37.105469 42.664062 38.707031 41.859375 38.921875 39.871094 C 38.726562 39.976562 38.542969 40.101562 38.351562 40.21875 C 37.6875 41.621094 37.199219 41.839844 35.527344 42.527344 "/>
<path style=" stroke:none;fill-rule:nonzero;fill:rgb(31.759644%,74.119568%,13.729858%);fill-opacity:1;" d="M 64.855469 51.734375 C 57.132812 51.734375 51.601562 52.246094 47.261719 52.257812 C 46.660156 50.933594 45.328125 49.421875 43.796875 48.679688 C 42.570312 48.082031 41.285156 47.671875 39.964844 47.371094 C 38.613281 47.066406 37.253906 46.808594 35.957031 46.300781 C 35.539062 46.136719 35.140625 45.9375 34.789062 45.660156 C 34.652344 45.554688 34.535156 45.4375 34.441406 45.316406 C 38.4375 44.691406 41.417969 43.34375 41.160156 39.019531 C 41.707031 38.851562 42.269531 38.730469 42.84375 38.660156 C 44.332031 39.777344 46.074219 40.511719 47.945312 40.746094 C 48.882812 42.414062 51.324219 42.753906 52.785156 41.464844 C 57.695312 40.304688 58.167969 40.300781 59.453125 39.695312 C 64.53125 41.957031 65.535156 47.019531 66.441406 49.394531 C 66.730469 50.15625 66.511719 50.9375 65.980469 51.484375 C 65.648438 51.644531 65.265625 51.734375 64.855469 51.734375 Z M 34.058594 45.03125 L 34.058594 45.027344 Z M 46.542969 57.175781 C 46.445312 57.976562 46.0625 58.539062 45.359375 58.949219 C 43.589844 59.988281 11.996094 59.089844 11.261719 58.632812 C 10.882812 58.394531 10.648438 58.089844 10.585938 57.644531 C 10.386719 56.21875 10.359375 54.789062 10.605469 53.367188 C 10.855469 51.933594 11.8125 50.964844 12.890625 50.117188 C 14.273438 49.03125 15.921875 48.5 17.597656 48.046875 C 18.949219 47.683594 20.320312 47.410156 21.652344 46.980469 C 22.023438 46.863281 22.378906 46.71875 22.726562 46.546875 C 23.59375 46.109375 23.964844 45.382812 23.957031 44.4375 C 23.957031 44.285156 23.929688 44.15625 23.832031 44.027344 C 22.609375 42.433594 21.933594 40.601562 21.480469 38.675781 C 21.421875 38.433594 21.332031 38.257812 21.132812 38.09375 C 20.027344 37.167969 19.214844 35.964844 19.207031 34.527344 C 19.203125 34.054688 19.597656 33.980469 20.257812 33.949219 C 20.164062 32.679688 19.867188 31.453125 19.957031 30.191406 C 20.070312 28.582031 20.476562 27.082031 21.578125 25.839844 C 22.691406 24.585938 24.15625 24.007812 25.753906 23.710938 C 28.09375 23.269531 30.289062 23.425781 32.316406 24.664062 C 32.390625 24.710938 32.488281 24.769531 32.613281 24.820312 C 33.3125 25.109375 33.921875 25.4375 34.445312 25.820312 C 35.53125 26.609375 36.253906 27.640625 36.652344 29.074219 C 36.796875 29.605469 36.882812 30.160156 36.859375 30.710938 C 36.832031 31.472656 36.886719 32.234375 36.839844 33.011719 C 37.019531 33.082031 37.21875 33.121094 37.425781 33.121094 C 37.726562 33.121094 38.003906 33.042969 38.234375 32.910156 C 38.210938 30.996094 38.269531 30.609375 38.839844 30.1875 C 38.484375 28.25 37.472656 26.433594 36.195312 25.105469 C 36.039062 24.949219 35.882812 24.792969 35.722656 24.648438 C 34.375 23.332031 32.757812 22.507812 31.113281 22.019531 C 26.84375 21.066406 22.957031 22.328125 20.71875 24.511719 C 19.191406 25.882812 18.105469 28.09375 17.734375 30.1875 C 18.066406 30.433594 18.292969 30.792969 18.292969 31.214844 L 18.292969 37.292969 C 18.292969 38.03125 17.640625 38.632812 16.828125 38.632812 C 16.144531 38.632812 15.597656 38.195312 15.4375 37.613281 C 13.4375 37.578125 11.828125 36.089844 11.828125 34.253906 C 11.828125 32.414062 13.4375 30.929688 15.4375 30.894531 C 15.535156 30.535156 15.777344 30.246094 16.117188 30.066406 C 15.210938 21.785156 26.882812 15.445312 35.339844 20.804688 C 35.890625 21.160156 36.402344 21.546875 36.867188 21.957031 C 37.21875 22.265625 37.546875 22.585938 37.832031 22.921875 C 38.113281 23.222656 38.359375 23.53125 38.582031 23.84375 C 38.917969 24.320312 39.199219 24.800781 39.441406 25.265625 C 39.824219 26.042969 40.078125 26.789062 40.238281 27.460938 C 40.425781 28.273438 40.535156 29.261719 40.460938 30.066406 C 40.574219 30.125 40.679688 30.203125 40.769531 30.285156 L 40.769531 30.289062 L 40.773438 30.289062 L 40.773438 30.285156 L 40.773438 30.289062 C 40.949219 30.453125 41.078125 30.660156 41.140625 30.894531 C 43.140625 30.929688 44.746094 32.417969 44.746094 34.253906 C 44.746094 34.996094 44.484375 35.683594 44.039062 36.238281 C 43.382812 37.054688 42.332031 37.59375 41.140625 37.613281 C 41.039062 37.988281 40.777344 38.296875 40.410156 38.472656 L 40.410156 39.402344 C 40.410156 43.117188 37.292969 44.097656 33.707031 44.917969 C 33.589844 45.117188 33.476562 45.316406 33.367188 45.519531 C 33.484375 45.75 33.660156 45.96875 33.902344 46.152344 C 34.257812 46.429688 34.65625 46.628906 35.070312 46.792969 C 36.367188 47.300781 37.726562 47.558594 39.078125 47.863281 C 40.398438 48.164062 41.683594 48.574219 42.910156 49.171875 C 44.441406 49.914062 45.53125 50.933594 46.136719 52.261719 C 46.519531 53.105469 46.707031 54.070312 46.6875 55.171875 C 46.671875 55.84375 46.632812 56.511719 46.542969 57.175781 Z M 42.289062 30.246094 C 42.226562 30.011719 41.734375 29.59375 41.558594 29.425781 C 41.558594 27.109375 41.558594 26.355469 41.558594 25.582031 C 43.609375 15.210938 56.132812 15.484375 58.125 25.589844 C 58.125 28.675781 58.699219 32.835938 54.734375 36.152344 L 52.097656 36.773438 C 50.703125 36.40625 49.398438 36.929688 48.695312 37.890625 C 47.261719 37.660156 46.472656 37.351562 45.359375 36.386719 C 45.804688 35.832031 46.097656 34.636719 46.097656 33.890625 C 46.097656 32.054688 44.289062 30.285156 42.289062 30.246094 Z M 38.695312 21.628906 C 38.800781 20.875 39.257812 20.050781 39.621094 19.394531 C 41.082031 16.789062 43.617188 14.796875 46.492188 13.996094 C 50.222656 12.953125 54.398438 13.871094 57.484375 16.214844 C 59.359375 17.640625 60.882812 19.628906 61.382812 21.929688 C 61.644531 23.148438 61.644531 24.488281 62.351562 25.507812 L 62.386719 25.554688 C 64.199219 25.363281 65.996094 26.972656 65.996094 28.792969 C 66 30.617188 64.214844 32.234375 62.398438 32.046875 C 62.300781 32.484375 61.964844 32.859375 61.539062 33.007812 C 62.113281 34.613281 61.203125 36.449219 59.835938 37.472656 C 58.472656 38.496094 56.753906 38.898438 55.085938 39.269531 C 54.445312 39.414062 53.804688 39.558594 53.160156 39.703125 C 52.929688 39.753906 52.695312 39.804688 52.492188 39.929688 C 52.28125 40.058594 52.117188 40.253906 51.929688 40.417969 C 51.425781 40.863281 50.695312 41.066406 50.054688 40.855469 C 49.417969 40.648438 48.9375 39.980469 49.019531 39.316406 C 49.152344 38.261719 50.570312 37.789062 51.542969 38.222656 C 51.777344 38.328125 52 38.46875 52.253906 38.496094 C 52.445312 38.519531 52.636719 38.476562 52.824219 38.433594 C 53.691406 38.226562 54.558594 38.027344 55.425781 37.820312 C 56.667969 37.53125 57.957031 37.21875 58.949219 36.421875 C 59.945312 35.625 60.554688 34.195312 60.015625 33.039062 C 59.898438 32.789062 59.730469 32.558594 59.632812 32.300781 C 59.5 31.960938 59.496094 31.585938 59.488281 31.21875 C 59.472656 29.75 59.453125 28.28125 59.433594 26.808594 C 59.421875 26.09375 59.449219 25.292969 59.964844 24.796875 C 59.429688 21.835938 57.496094 19.15625 54.851562 17.722656 C 52.207031 16.285156 48.910156 16.121094 46.132812 17.285156 C 43.359375 18.449219 41.167969 20.921875 40.339844 23.8125 C 40.078125 23.386719 39.78125 22.980469 39.449219 22.605469 C 39.28125 22.414062 39.105469 22.234375 38.921875 22.0625 C 38.730469 21.882812 38.660156 21.878906 38.695312 21.628906 Z M 37.5 0 C 16.789062 0 0 16.789062 0 37.5 C 0 58.210938 16.789062 75 37.5 75 C 58.210938 75 75 58.210938 75 37.5 C 75 16.789062 58.210938 0 37.5 0 "/>
</g>
</svg>
